<svg xmlns="http://www.w3.org/2000/svg" version="1.1" xmlns:xlink="http://www.w3.org/1999/xlink" xmlns:svgjs="http://svgjs.dev/svgjs" width="1444" height="570" preserveAspectRatio="none" viewBox="0 0 1444 570"><g mask="url(&quot;#SvgjsMask1557&quot;)" fill="none"><rect width="1444" height="570" x="0" y="0" fill="url(&quot;#SvgjsLinearGradient1558&quot;)"></rect><path d="M-63.34 371.21L-63.34 371.21" stroke="rgba(85, 191, 116, 1)" stroke-width="1.5"></path><path d="M-63.34 371.21L75.91 400.87" stroke="rgba(85, 191, 116, 1)" stroke-width="1.5"></path><path d="M-63.34 371.21L-59.22 541.67" stroke="rgba(85, 191, 116, 1)" stroke-width="1.5"></path><path d="M-63.34 371.21L50.37 529.68" stroke="rgba(85, 191, 116, 1)" stroke-width="1.5"></path><path d="M-63.34 371.21L227.4 379.05" stroke="rgba(85, 191, 116, 1)" stroke-width="1.5"></path><path d="M-59.22 541.67L-59.22 541.67" stroke="rgba(85, 191, 116, 1)" stroke-width="1.5"></path><path d="M-59.22 541.67L50.37 529.68" stroke="rgba(85, 191, 116, 1)" stroke-width="1.5"></path><path d="M75.91 400.87L75.91 400.87" stroke="rgba(85, 191, 116, 1)" stroke-width="1.5"></path><path d="M75.91 400.87L50.37 529.68" stroke="rgba(85, 191, 116, 1)" stroke-width="1.5"></path><path d="M75.91 400.87L227.4 379.05" stroke="rgba(85, 191, 116, 1)" stroke-width="1.5"></path><path d="M75.91 400.87L-59.22 541.67" stroke="rgba(85, 191, 116, 1)" stroke-width="1.5"></path><path d="M50.37 529.68L50.37 529.68" stroke="rgba(85, 191, 116, 1)" stroke-width="1.5"></path><path d="M50.37 529.68L49.87 698.73" stroke="rgba(85, 191, 116, 1)" stroke-width="1.5"></path><path d="M50.37 529.68L251.26 509.77" stroke="rgba(85, 191, 116, 1)" stroke-width="1.5"></path><path d="M49.87 698.73L49.87 698.73" stroke="rgba(85, 191, 116, 1)" stroke-width="1.5"></path><path d="M49.87 698.73L-59.22 541.67" stroke="rgba(85, 191, 116, 1)" stroke-width="1.5"></path><path d="M227.4 379.05L227.4 379.05" stroke="rgba(85, 191, 116, 1)" stroke-width="1.5"></path><path d="M227.4 379.05L251.26 509.77" stroke="rgba(85, 191, 116, 1)" stroke-width="1.5"></path><path d="M227.4 379.05L345.08 488.79" stroke="rgba(85, 191, 116, 1)" stroke-width="1.5"></path><path d="M227.4 379.05L406.91 351.22" stroke="rgba(85, 191, 116, 1)" stroke-width="1.5"></path><path d="M227.4 379.05L50.37 529.68" stroke="rgba(85, 191, 116, 1)" stroke-width="1.5"></path><path d="M227.4 379.05L488.2 385.1" stroke="rgba(85, 191, 116, 1)" stroke-width="1.5"></path><path d="M251.26 509.77L251.26 509.77" stroke="rgba(85, 191, 116, 1)" stroke-width="1.5"></path><path d="M251.26 509.77L345.08 488.79" stroke="rgba(85, 191, 116, 1)" stroke-width="1.5"></path><path d="M251.26 509.77L250.64 659.84" stroke="rgba(85, 191, 116, 1)" stroke-width="1.5"></path><path d="M251.26 509.77L75.91 400.87" stroke="rgba(85, 191, 116, 1)" stroke-width="1.5"></path><path d="M250.64 659.84L250.64 659.84" stroke="rgba(85, 191, 116, 1)" stroke-width="1.5"></path><path d="M250.64 659.84L345.08 488.79" stroke="rgba(85, 191, 116, 1)" stroke-width="1.5"></path><path d="M250.64 659.84L49.87 698.73" stroke="rgba(85, 191, 116, 1)" stroke-width="1.5"></path><path d="M250.64 659.84L50.37 529.68" stroke="rgba(85, 191, 116, 1)" stroke-width="1.5"></path><path d="M250.64 659.84L498.32 685.74" stroke="rgba(85, 191, 116, 1)" stroke-width="1.5"></path><path d="M250.64 659.84L227.4 379.05" stroke="rgba(85, 191, 116, 1)" stroke-width="1.5"></path><path d="M406.91 351.22L406.91 351.22" stroke="rgba(85, 191, 116, 1)" stroke-width="1.5"></path><path d="M406.91 351.22L488.2 385.1" stroke="rgba(85, 191, 116, 1)" stroke-width="1.5"></path><path d="M406.91 351.22L345.08 488.79" stroke="rgba(85, 191, 116, 1)" stroke-width="1.5"></path><path d="M406.91 351.22L532.29 512.2" stroke="rgba(85, 191, 116, 1)" stroke-width="1.5"></path><path d="M406.91 351.22L251.26 509.77" stroke="rgba(85, 191, 116, 1)" stroke-width="1.5"></path><path d="M406.91 351.22L691.53 351.5" stroke="rgba(85, 191, 116, 1)" stroke-width="1.5"></path><path d="M345.08 488.79L345.08 488.79" stroke="rgba(85, 191, 116, 1)" stroke-width="1.5"></path><path d="M488.2 385.1L488.2 385.1" stroke="rgba(85, 191, 116, 1)" stroke-width="1.5"></path><path d="M488.2 385.1L532.29 512.2" stroke="rgba(85, 191, 116, 1)" stroke-width="1.5"></path><path d="M488.2 385.1L345.08 488.79" stroke="rgba(85, 191, 116, 1)" stroke-width="1.5"></path><path d="M488.2 385.1L691.53 351.5" stroke="rgba(85, 191, 116, 1)" stroke-width="1.5"></path><path d="M488.2 385.1L653.22 512.02" stroke="rgba(85, 191, 116, 1)" stroke-width="1.5"></path><path d="M532.29 512.2L532.29 512.2" stroke="rgba(85, 191, 116, 1)" stroke-width="1.5"></path><path d="M532.29 512.2L653.22 512.02" stroke="rgba(85, 191, 116, 1)" stroke-width="1.5"></path><path d="M498.32 685.74L498.32 685.74" stroke="rgba(85, 191, 116, 1)" stroke-width="1.5"></path><path d="M498.32 685.74L532.29 512.2" stroke="rgba(85, 191, 116, 1)" stroke-width="1.5"></path><path d="M498.32 685.74L708.63 652.05" stroke="rgba(85, 191, 116, 1)" stroke-width="1.5"></path><path d="M691.53 351.5L691.53 351.5" stroke="rgba(85, 191, 116, 1)" stroke-width="1.5"></path><path d="M691.53 351.5L844.38 408.35" stroke="rgba(85, 191, 116, 1)" stroke-width="1.5"></path><path d="M691.53 351.5L653.22 512.02" stroke="rgba(85, 191, 116, 1)" stroke-width="1.5"></path><path d="M691.53 351.5L823.84 236.29" stroke="rgba(85, 191, 116, 1)" stroke-width="1.5"></path><path d="M691.53 351.5L532.29 512.2" stroke="rgba(85, 191, 116, 1)" stroke-width="1.5"></path><path d="M653.22 512.02L653.22 512.02" stroke="rgba(85, 191, 116, 1)" stroke-width="1.5"></path><path d="M653.22 512.02L708.63 652.05" stroke="rgba(85, 191, 116, 1)" stroke-width="1.5"></path><path d="M653.22 512.02L799.5 551.23" stroke="rgba(85, 191, 116, 1)" stroke-width="1.5"></path><path d="M653.22 512.02L844.38 408.35" stroke="rgba(85, 191, 116, 1)" stroke-width="1.5"></path><path d="M708.63 652.05L708.63 652.05" stroke="rgba(85, 191, 116, 1)" stroke-width="1.5"></path><path d="M708.63 652.05L799.5 551.23" stroke="rgba(85, 191, 116, 1)" stroke-width="1.5"></path><path d="M708.63 652.05L851.91 674.45" stroke="rgba(85, 191, 116, 1)" stroke-width="1.5"></path><path d="M708.63 652.05L532.29 512.2" stroke="rgba(85, 191, 116, 1)" stroke-width="1.5"></path><path d="M823.84 236.29L823.84 236.29" stroke="rgba(85, 191, 116, 1)" stroke-width="1.5"></path><path d="M823.84 236.29L992.46 243.35" stroke="rgba(85, 191, 116, 1)" stroke-width="1.5"></path><path d="M823.84 236.29L844.38 408.35" stroke="rgba(85, 191, 116, 1)" stroke-width="1.5"></path><path d="M823.84 236.29L996.84 346.62" stroke="rgba(85, 191, 116, 1)" stroke-width="1.5"></path><path d="M823.84 236.29L1010.48 64.03" stroke="rgba(85, 191, 116, 1)" stroke-width="1.5"></path><path d="M844.38 408.35L844.38 408.35" stroke="rgba(85, 191, 116, 1)" stroke-width="1.5"></path><path d="M844.38 408.35L799.5 551.23" stroke="rgba(85, 191, 116, 1)" stroke-width="1.5"></path><path d="M844.38 408.35L946.04 527.05" stroke="rgba(85, 191, 116, 1)" stroke-width="1.5"></path><path d="M799.5 551.23L799.5 551.23" stroke="rgba(85, 191, 116, 1)" stroke-width="1.5"></path><path d="M799.5 551.23L851.91 674.45" stroke="rgba(85, 191, 116, 1)" stroke-width="1.5"></path><path d="M799.5 551.23L946.04 527.05" stroke="rgba(85, 191, 116, 1)" stroke-width="1.5"></path><path d="M851.91 674.45L851.91 674.45" stroke="rgba(85, 191, 116, 1)" stroke-width="1.5"></path><path d="M851.91 674.45L967.12 701.22" stroke="rgba(85, 191, 116, 1)" stroke-width="1.5"></path><path d="M946.16 -103.91L946.16 -103.91" stroke="rgba(85, 191, 116, 1)" stroke-width="1.5"></path><path d="M946.16 -103.91L1010.48 64.03" stroke="rgba(85, 191, 116, 1)" stroke-width="1.5"></path><path d="M946.16 -103.91L1141.16 -47.23" stroke="rgba(85, 191, 116, 1)" stroke-width="1.5"></path><path d="M1010.48 64.03L1010.48 64.03" stroke="rgba(85, 191, 116, 1)" stroke-width="1.5"></path><path d="M1010.48 64.03L1121.15 98.4" stroke="rgba(85, 191, 116, 1)" stroke-width="1.5"></path><path d="M1010.48 64.03L1141.16 -47.23" stroke="rgba(85, 191, 116, 1)" stroke-width="1.5"></path><path d="M1010.48 64.03L1088.41 224.35" stroke="rgba(85, 191, 116, 1)" stroke-width="1.5"></path><path d="M992.46 243.35L992.46 243.35" stroke="rgba(85, 191, 116, 1)" stroke-width="1.5"></path><path d="M992.46 243.35L1088.41 224.35" stroke="rgba(85, 191, 116, 1)" stroke-width="1.5"></path><path d="M992.46 243.35L996.84 346.62" stroke="rgba(85, 191, 116, 1)" stroke-width="1.5"></path><path d="M992.46 243.35L1010.48 64.03" stroke="rgba(85, 191, 116, 1)" stroke-width="1.5"></path><path d="M996.84 346.62L996.84 346.62" stroke="rgba(85, 191, 116, 1)" stroke-width="1.5"></path><path d="M996.84 346.62L1088.41 224.35" stroke="rgba(85, 191, 116, 1)" stroke-width="1.5"></path><path d="M996.84 346.62L844.38 408.35" stroke="rgba(85, 191, 116, 1)" stroke-width="1.5"></path><path d="M996.84 346.62L946.04 527.05" stroke="rgba(85, 191, 116, 1)" stroke-width="1.5"></path><path d="M946.04 527.05L946.04 527.05" stroke="rgba(85, 191, 116, 1)" stroke-width="1.5"></path><path d="M946.04 527.05L851.91 674.45" stroke="rgba(85, 191, 116, 1)" stroke-width="1.5"></path><path d="M946.04 527.05L967.12 701.22" stroke="rgba(85, 191, 116, 1)" stroke-width="1.5"></path><path d="M967.12 701.22L967.12 701.22" stroke="rgba(85, 191, 116, 1)" stroke-width="1.5"></path><path d="M967.12 701.22L1147.18 703.48" stroke="rgba(85, 191, 116, 1)" stroke-width="1.5"></path><path d="M1141.16 -47.23L1141.16 -47.23" stroke="rgba(85, 191, 116, 1)" stroke-width="1.5"></path><path d="M1141.16 -47.23L1274.59 -50.88" stroke="rgba(85, 191, 116, 1)" stroke-width="1.5"></path><path d="M1141.16 -47.23L1121.15 98.4" stroke="rgba(85, 191, 116, 1)" stroke-width="1.5"></path><path d="M1121.15 98.4L1121.15 98.4" stroke="rgba(85, 191, 116, 1)" stroke-width="1.5"></path><path d="M1088.41 224.35L1088.41 224.35" stroke="rgba(85, 191, 116, 1)" stroke-width="1.5"></path><path d="M1088.41 224.35L1121.15 98.4" stroke="rgba(85, 191, 116, 1)" stroke-width="1.5"></path><path d="M1158.25 560.07L1158.25 560.07" stroke="rgba(85, 191, 116, 1)" stroke-width="1.5"></path><path d="M1158.25 560.07L1293.21 557.04" stroke="rgba(85, 191, 116, 1)" stroke-width="1.5"></path><path d="M1158.25 560.07L1147.18 703.48" stroke="rgba(85, 191, 116, 1)" stroke-width="1.5"></path><path d="M1147.18 703.48L1147.18 703.48" stroke="rgba(85, 191, 116, 1)" stroke-width="1.5"></path><path d="M1147.18 703.48L1297.63 648.71" stroke="rgba(85, 191, 116, 1)" stroke-width="1.5"></path><path d="M1274.59 -50.88L1274.59 -50.88" stroke="rgba(85, 191, 116, 1)" stroke-width="1.5"></path><path d="M1274.59 -50.88L1301.9 109.55" stroke="rgba(85, 191, 116, 1)" stroke-width="1.5"></path><path d="M1274.59 -50.88L1407.74 56.92" stroke="rgba(85, 191, 116, 1)" stroke-width="1.5"></path><path d="M1301.9 109.55L1301.9 109.55" stroke="rgba(85, 191, 116, 1)" stroke-width="1.5"></path><path d="M1301.9 109.55L1407.74 56.92" stroke="rgba(85, 191, 116, 1)" stroke-width="1.5"></path><path d="M1301.9 109.55L1121.15 98.4" stroke="rgba(85, 191, 116, 1)" stroke-width="1.5"></path><path d="M1301.9 109.55L1459.32 230.16" stroke="rgba(85, 191, 116, 1)" stroke-width="1.5"></path><path d="M1293.21 557.04L1293.21 557.04" stroke="rgba(85, 191, 116, 1)" stroke-width="1.5"></path><path d="M1293.21 557.04L1297.63 648.71" stroke="rgba(85, 191, 116, 1)" stroke-width="1.5"></path><path d="M1293.21 557.04L1404.78 517.07" stroke="rgba(85, 191, 116, 1)" stroke-width="1.5"></path><path d="M1297.63 648.71L1297.63 648.71" stroke="rgba(85, 191, 116, 1)" stroke-width="1.5"></path><path d="M1297.63 648.71L1393.69 696.41" stroke="rgba(85, 191, 116, 1)" stroke-width="1.5"></path><path d="M1451.86 -51.91L1451.86 -51.91" stroke="rgba(85, 191, 116, 1)" stroke-width="1.5"></path><path d="M1451.86 -51.91L1547.76 -80.64" stroke="rgba(85, 191, 116, 1)" stroke-width="1.5"></path><path d="M1451.86 -51.91L1407.74 56.92" stroke="rgba(85, 191, 116, 1)" stroke-width="1.5"></path><path d="M1407.74 56.92L1407.74 56.92" stroke="rgba(85, 191, 116, 1)" stroke-width="1.5"></path><path d="M1407.74 56.92L1540.43 98.3" stroke="rgba(85, 191, 116, 1)" stroke-width="1.5"></path><path d="M1407.74 56.92L1459.32 230.16" stroke="rgba(85, 191, 116, 1)" stroke-width="1.5"></path><path d="M1459.32 230.16L1459.32 230.16" stroke="rgba(85, 191, 116, 1)" stroke-width="1.5"></path><path d="M1459.32 230.16L1561.85 235.84" stroke="rgba(85, 191, 116, 1)" stroke-width="1.5"></path><path d="M1459.32 230.16L1540.43 98.3" stroke="rgba(85, 191, 116, 1)" stroke-width="1.5"></path><path d="M1459.32 230.16L1400.71 385.03" stroke="rgba(85, 191, 116, 1)" stroke-width="1.5"></path><path d="M1400.71 385.03L1400.71 385.03" stroke="rgba(85, 191, 116, 1)" stroke-width="1.5"></path><path d="M1400.71 385.03L1404.78 517.07" stroke="rgba(85, 191, 116, 1)" stroke-width="1.5"></path><path d="M1400.71 385.03L1554.15 411.09" stroke="rgba(85, 191, 116, 1)" stroke-width="1.5"></path><path d="M1404.78 517.07L1404.78 517.07" stroke="rgba(85, 191, 116, 1)" stroke-width="1.5"></path><path d="M1404.78 517.07L1538.32 497.45" stroke="rgba(85, 191, 116, 1)" stroke-width="1.5"></path><path d="M1393.69 696.41L1393.69 696.41" stroke="rgba(85, 191, 116, 1)" stroke-width="1.5"></path><path d="M1393.69 696.41L1293.21 557.04" stroke="rgba(85, 191, 116, 1)" stroke-width="1.5"></path><path d="M1547.76 -80.64L1547.76 -80.64" stroke="rgba(85, 191, 116, 1)" stroke-width="1.5"></path><path d="M1547.76 -80.64L1540.43 98.3" stroke="rgba(85, 191, 116, 1)" stroke-width="1.5"></path><path d="M1547.76 -80.64L1407.74 56.92" stroke="rgba(85, 191, 116, 1)" stroke-width="1.5"></path><path d="M1547.76 -80.64L1274.59 -50.88" stroke="rgba(85, 191, 116, 1)" stroke-width="1.5"></path><path d="M1547.76 -80.64L1301.9 109.55" stroke="rgba(85, 191, 116, 1)" stroke-width="1.5"></path><path d="M1540.43 98.3L1540.43 98.3" stroke="rgba(85, 191, 116, 1)" stroke-width="1.5"></path><path d="M1540.43 98.3L1561.85 235.84" stroke="rgba(85, 191, 116, 1)" stroke-width="1.5"></path><path d="M1540.43 98.3L1451.86 -51.91" stroke="rgba(85, 191, 116, 1)" stroke-width="1.5"></path><path d="M1561.85 235.84L1561.85 235.84" stroke="rgba(85, 191, 116, 1)" stroke-width="1.5"></path><path d="M1561.85 235.84L1554.15 411.09" stroke="rgba(85, 191, 116, 1)" stroke-width="1.5"></path><path d="M1561.85 235.84L1400.71 385.03" stroke="rgba(85, 191, 116, 1)" stroke-width="1.5"></path><path d="M1561.85 235.84L1407.74 56.92" stroke="rgba(85, 191, 116, 1)" stroke-width="1.5"></path><path d="M1561.85 235.84L1538.32 497.45" stroke="rgba(85, 191, 116, 1)" stroke-width="1.5"></path><path d="M1554.15 411.09L1554.15 411.09" stroke="rgba(85, 191, 116, 1)" stroke-width="1.5"></path><path d="M1554.15 411.09L1538.32 497.45" stroke="rgba(85, 191, 116, 1)" stroke-width="1.5"></path><path d="M1554.15 411.09L1404.78 517.07" stroke="rgba(85, 191, 116, 1)" stroke-width="1.5"></path><path d="M1554.15 411.09L1459.32 230.16" stroke="rgba(85, 191, 116, 1)" stroke-width="1.5"></path><path d="M1554.15 411.09L1293.21 557.04" stroke="rgba(85, 191, 116, 1)" stroke-width="1.5"></path><path d="M1538.32 497.45L1538.32 497.45" stroke="rgba(85, 191, 116, 1)" stroke-width="1.5"></path><path d="M1538.32 497.45L1400.71 385.03" stroke="rgba(85, 191, 116, 1)" stroke-width="1.5"></path><path d="M1538.32 497.45L1572.81 710.91" stroke="rgba(85, 191, 116, 1)" stroke-width="1.5"></path><path d="M1538.32 497.45L1393.69 696.41" stroke="rgba(85, 191, 116, 1)" stroke-width="1.5"></path><path d="M1538.32 497.45L1293.21 557.04" stroke="rgba(85, 191, 116, 1)" stroke-width="1.5"></path><path d="M1572.81 710.91L1572.81 710.91" stroke="rgba(85, 191, 116, 1)" stroke-width="1.5"></path><path d="M1572.81 710.91L1393.69 696.41" stroke="rgba(85, 191, 116, 1)" stroke-width="1.5"></path><path d="M1572.81 710.91L1404.78 517.07" stroke="rgba(85, 191, 116, 1)" stroke-width="1.5"></path><path d="M1572.81 710.91L1297.63 648.71" stroke="rgba(85, 191, 116, 1)" stroke-width="1.5"></path><path d="M1572.81 710.91L1554.15 411.09" stroke="rgba(85, 191, 116, 1)" stroke-width="1.5"></path><path d="M1572.81 710.91L1293.21 557.04" stroke="rgba(85, 191, 116, 1)" stroke-width="1.5"></path><circle r="5" cx="-63.34" cy="371.21" fill="rgba(85, 191, 116, 1)"></circle><circle r="5" cx="-59.22" cy="541.67" fill="rgba(85, 191, 116, 1)"></circle><circle r="5" cx="75.91" cy="400.87" fill="rgba(85, 191, 116, 1)"></circle><circle r="5" cx="50.37" cy="529.68" fill="rgba(85, 191, 116, 1)"></circle><circle r="5" cx="49.87" cy="698.73" fill="rgba(85, 191, 116, 1)"></circle><circle r="5" cx="227.4" cy="379.05" fill="rgba(85, 191, 116, 1)"></circle><circle r="5" cx="251.26" cy="509.77" fill="rgba(85, 191, 116, 1)"></circle><circle r="5" cx="250.64" cy="659.84" fill="rgba(85, 191, 116, 1)"></circle><circle r="5" cx="406.91" cy="351.22" fill="rgba(85, 191, 116, 1)"></circle><circle r="5" cx="345.08" cy="488.79" fill="rgba(85, 191, 116, 1)"></circle><circle r="5" cx="488.2" cy="385.1" fill="rgba(85, 191, 116, 1)"></circle><circle r="5" cx="532.29" cy="512.2" fill="rgba(85, 191, 116, 1)"></circle><circle r="5" cx="498.32" cy="685.74" fill="rgba(85, 191, 116, 1)"></circle><circle r="5" cx="691.53" cy="351.5" fill="rgba(85, 191, 116, 1)"></circle><circle r="5" cx="653.22" cy="512.02" fill="rgba(85, 191, 116, 1)"></circle><circle r="5" cx="708.63" cy="652.05" fill="rgba(85, 191, 116, 1)"></circle><circle r="5" cx="823.84" cy="236.29" fill="rgba(85, 191, 116, 1)"></circle><circle r="5" cx="844.38" cy="408.35" fill="rgba(85, 191, 116, 1)"></circle><circle r="5" cx="799.5" cy="551.23" fill="rgba(85, 191, 116, 1)"></circle><circle r="5" cx="851.91" cy="674.45" fill="rgba(85, 191, 116, 1)"></circle><circle r="5" cx="946.16" cy="-103.91" fill="rgba(85, 191, 116, 1)"></circle><circle r="5" cx="1010.48" cy="64.03" fill="rgba(85, 191, 116, 1)"></circle><circle r="5" cx="992.46" cy="243.35" fill="rgba(85, 191, 116, 1)"></circle><circle r="5" cx="996.84" cy="346.62" fill="rgba(85, 191, 116, 1)"></circle><circle r="5" cx="946.04" cy="527.05" fill="rgba(85, 191, 116, 1)"></circle><circle r="5" cx="967.12" cy="701.22" fill="rgba(85, 191, 116, 1)"></circle><circle r="5" cx="1141.16" cy="-47.23" fill="rgba(85, 191, 116, 1)"></circle><circle r="5" cx="1121.15" cy="98.4" fill="rgba(85, 191, 116, 1)"></circle><circle r="5" cx="1088.41" cy="224.35" fill="rgba(85, 191, 116, 1)"></circle><circle r="5" cx="1158.25" cy="560.07" fill="rgba(85, 191, 116, 1)"></circle><circle r="5" cx="1147.18" cy="703.48" fill="rgba(85, 191, 116, 1)"></circle><circle r="5" cx="1274.59" cy="-50.88" fill="rgba(85, 191, 116, 1)"></circle><circle r="5" cx="1301.9" cy="109.55" fill="rgba(85, 191, 116, 1)"></circle><circle r="5" cx="1293.21" cy="557.04" fill="rgba(85, 191, 116, 1)"></circle><circle r="5" cx="1297.63" cy="648.71" fill="rgba(85, 191, 116, 1)"></circle><circle r="5" cx="1451.86" cy="-51.91" fill="rgba(85, 191, 116, 1)"></circle><circle r="5" cx="1407.74" cy="56.92" fill="rgba(85, 191, 116, 1)"></circle><circle r="5" cx="1459.32" cy="230.16" fill="rgba(85, 191, 116, 1)"></circle><circle r="5" cx="1400.71" cy="385.03" fill="rgba(85, 191, 116, 1)"></circle><circle r="5" cx="1404.78" cy="517.07" fill="rgba(85, 191, 116, 1)"></circle><circle r="5" cx="1393.69" cy="696.41" fill="rgba(85, 191, 116, 1)"></circle><circle r="5" cx="1547.76" cy="-80.64" fill="rgba(85, 191, 116, 1)"></circle><circle r="5" cx="1540.43" cy="98.3" fill="rgba(85, 191, 116, 1)"></circle><circle r="5" cx="1561.85" cy="235.84" fill="rgba(85, 191, 116, 1)"></circle><circle r="5" cx="1554.15" cy="411.09" fill="rgba(85, 191, 116, 1)"></circle><circle r="5" cx="1538.32" cy="497.45" fill="rgba(85, 191, 116, 1)"></circle><circle r="5" cx="1572.81" cy="710.91" fill="rgba(85, 191, 116, 1)"></circle><path d="M550.84 701.65L550.84 701.65" stroke="hsl(133.60000000000002, 78.6%, 100%)" stroke-width="1.5"></path><path d="M550.84 701.65L682.36 663.52" stroke="hsl(133.60000000000002, 78.6%, 100%)" stroke-width="1.5"></path><path d="M550.84 701.65L385.85 674.98" stroke="hsl(133.60000000000002, 78.6%, 100%)" stroke-width="1.5"></path><path d="M683.07 395.72L683.07 395.72" stroke="hsl(133.60000000000002, 78.6%, 100%)" stroke-width="1.5"></path><path d="M683.07 395.72L674.26 508.81" stroke="hsl(133.60000000000002, 78.6%, 100%)" stroke-width="1.5"></path><path d="M683.07 395.72L829.17 365.67" stroke="hsl(133.60000000000002, 78.6%, 100%)" stroke-width="1.5"></path><path d="M683.07 395.72L846.65 509.59" stroke="hsl(133.60000000000002, 78.6%, 100%)" stroke-width="1.5"></path><path d="M683.07 395.72L522.61 531.39" stroke="hsl(133.60000000000002, 78.6%, 100%)" stroke-width="1.5"></path><path d="M683.07 395.72L682.36 663.52" stroke="hsl(133.60000000000002, 78.6%, 100%)" stroke-width="1.5"></path><path d="M829.17 365.67L829.17 365.67" stroke="hsl(133.60000000000002, 78.6%, 100%)" stroke-width="1.5"></path><path d="M829.17 365.67L966.59 361" stroke="hsl(133.60000000000002, 78.6%, 100%)" stroke-width="1.5"></path><path d="M829.17 365.67L846.65 509.59" stroke="hsl(133.60000000000002, 78.6%, 100%)" stroke-width="1.5"></path><path d="M829.17 365.67L942.63 515.53" stroke="hsl(133.60000000000002, 78.6%, 100%)" stroke-width="1.5"></path><path d="M1281.54 705.43L1281.54 705.43" stroke="hsl(133.60000000000002, 78.6%, 100%)" stroke-width="1.5"></path><path d="M1281.54 705.43L1427.23 664.14" stroke="hsl(133.60000000000002, 78.6%, 100%)" stroke-width="1.5"></path><path d="M1281.54 705.43L1123.28 680.52" stroke="hsl(133.60000000000002, 78.6%, 100%)" stroke-width="1.5"></path><path d="M1281.54 705.43L1286 498.96" stroke="hsl(133.60000000000002, 78.6%, 100%)" stroke-width="1.5"></path><path d="M1281.54 705.43L1434.68 494.1" stroke="hsl(133.60000000000002, 78.6%, 100%)" stroke-width="1.5"></path><path d="M1281.54 705.43L1117.92 488.66" stroke="hsl(133.60000000000002, 78.6%, 100%)" stroke-width="1.5"></path><path d="M1281.54 705.43L1423.31 405.8" stroke="hsl(133.60000000000002, 78.6%, 100%)" stroke-width="1.5"></path><path d="M1436.26 49.68L1436.26 49.68" stroke="hsl(133.60000000000002, 78.6%, 100%)" stroke-width="1.5"></path><path d="M1436.26 49.68L1290.75 44.56" stroke="hsl(133.60000000000002, 78.6%, 100%)" stroke-width="1.5"></path><path d="M1436.26 49.68L1437.03 -99.21" stroke="hsl(133.60000000000002, 78.6%, 100%)" stroke-width="1.5"></path><path d="M1436.26 49.68L1597.48 57.75" stroke="hsl(133.60000000000002, 78.6%, 100%)" stroke-width="1.5"></path><path d="M1436.26 49.68L1557.16 -61.14" stroke="hsl(133.60000000000002, 78.6%, 100%)" stroke-width="1.5"></path><path d="M1436.26 49.68L1302.87 199.8" stroke="hsl(133.60000000000002, 78.6%, 100%)" stroke-width="1.5"></path><path d="M1436.26 49.68L1570.85 212.24" stroke="hsl(133.60000000000002, 78.6%, 100%)" stroke-width="1.5"></path><path d="M1434.68 494.1L1434.68 494.1" stroke="hsl(133.60000000000002, 78.6%, 100%)" stroke-width="1.5"></path><path d="M1434.68 494.1L1423.31 405.8" stroke="hsl(133.60000000000002, 78.6%, 100%)" stroke-width="1.5"></path><path d="M1434.68 494.1L1568.89 537.89" stroke="hsl(133.60000000000002, 78.6%, 100%)" stroke-width="1.5"></path><path d="M1434.68 494.1L1286 498.96" stroke="hsl(133.60000000000002, 78.6%, 100%)" stroke-width="1.5"></path><path d="M1434.68 494.1L1427.23 664.14" stroke="hsl(133.60000000000002, 78.6%, 100%)" stroke-width="1.5"></path><path d="M1585.18 358.38L1585.18 358.38" stroke="hsl(133.60000000000002, 78.6%, 100%)" stroke-width="1.5"></path><path d="M1585.18 358.38L1570.85 212.24" stroke="hsl(133.60000000000002, 78.6%, 100%)" stroke-width="1.5"></path><path d="M1585.18 358.38L1423.31 405.8" stroke="hsl(133.60000000000002, 78.6%, 100%)" stroke-width="1.5"></path><path d="M1585.18 358.38L1568.89 537.89" stroke="hsl(133.60000000000002, 78.6%, 100%)" stroke-width="1.5"></path><path d="M1585.18 358.38L1434.68 494.1" stroke="hsl(133.60000000000002, 78.6%, 100%)" stroke-width="1.5"></path><path d="M-77.63 499.69L-77.63 499.69" stroke="hsl(133.60000000000002, 78.6%, 100%)" stroke-width="1.5"></path><path d="M-77.63 499.69L93.4 541.25" stroke="hsl(133.60000000000002, 78.6%, 100%)" stroke-width="1.5"></path><path d="M-77.63 499.69L-53.79 703.32" stroke="hsl(133.60000000000002, 78.6%, 100%)" stroke-width="1.5"></path><path d="M-77.63 499.69L89.03 689.73" stroke="hsl(133.60000000000002, 78.6%, 100%)" stroke-width="1.5"></path><path d="M-53.79 703.32L-53.79 703.32" stroke="hsl(133.60000000000002, 78.6%, 100%)" stroke-width="1.5"></path><path d="M-53.79 703.32L89.03 689.73" stroke="hsl(133.60000000000002, 78.6%, 100%)" stroke-width="1.5"></path><path d="M-53.79 703.32L93.4 541.25" stroke="hsl(133.60000000000002, 78.6%, 100%)" stroke-width="1.5"></path><path d="M93.4 541.25L93.4 541.25" stroke="hsl(133.60000000000002, 78.6%, 100%)" stroke-width="1.5"></path><path d="M93.4 541.25L89.03 689.73" stroke="hsl(133.60000000000002, 78.6%, 100%)" stroke-width="1.5"></path><path d="M93.4 541.25L258.78 551.79" stroke="hsl(133.60000000000002, 78.6%, 100%)" stroke-width="1.5"></path><path d="M89.03 689.73L89.03 689.73" stroke="hsl(133.60000000000002, 78.6%, 100%)" stroke-width="1.5"></path><path d="M89.03 689.73L243.59 651.66" stroke="hsl(133.60000000000002, 78.6%, 100%)" stroke-width="1.5"></path><path d="M89.03 689.73L258.78 551.79" stroke="hsl(133.60000000000002, 78.6%, 100%)" stroke-width="1.5"></path><path d="M89.03 689.73L385.85 674.98" stroke="hsl(133.60000000000002, 78.6%, 100%)" stroke-width="1.5"></path><path d="M258.78 551.79L258.78 551.79" stroke="hsl(133.60000000000002, 78.6%, 100%)" stroke-width="1.5"></path><path d="M258.78 551.79L243.59 651.66" stroke="hsl(133.60000000000002, 78.6%, 100%)" stroke-width="1.5"></path><path d="M258.78 551.79L383.06 496.5" stroke="hsl(133.60000000000002, 78.6%, 100%)" stroke-width="1.5"></path><path d="M258.78 551.79L385.85 674.98" stroke="hsl(133.60000000000002, 78.6%, 100%)" stroke-width="1.5"></path><path d="M258.78 551.79L522.61 531.39" stroke="hsl(133.60000000000002, 78.6%, 100%)" stroke-width="1.5"></path><path d="M243.59 651.66L243.59 651.66" stroke="hsl(133.60000000000002, 78.6%, 100%)" stroke-width="1.5"></path><path d="M243.59 651.66L385.85 674.98" stroke="hsl(133.60000000000002, 78.6%, 100%)" stroke-width="1.5"></path><path d="M383.06 496.5L383.06 496.5" stroke="hsl(133.60000000000002, 78.6%, 100%)" stroke-width="1.5"></path><path d="M383.06 496.5L522.61 531.39" stroke="hsl(133.60000000000002, 78.6%, 100%)" stroke-width="1.5"></path><path d="M383.06 496.5L385.85 674.98" stroke="hsl(133.60000000000002, 78.6%, 100%)" stroke-width="1.5"></path><path d="M383.06 496.5L243.59 651.66" stroke="hsl(133.60000000000002, 78.6%, 100%)" stroke-width="1.5"></path><path d="M385.85 674.98L385.85 674.98" stroke="hsl(133.60000000000002, 78.6%, 100%)" stroke-width="1.5"></path><path d="M522.61 531.39L522.61 531.39" stroke="hsl(133.60000000000002, 78.6%, 100%)" stroke-width="1.5"></path><path d="M522.61 531.39L674.26 508.81" stroke="hsl(133.60000000000002, 78.6%, 100%)" stroke-width="1.5"></path><path d="M674.26 508.81L674.26 508.81" stroke="hsl(133.60000000000002, 78.6%, 100%)" stroke-width="1.5"></path><path d="M674.26 508.81L682.36 663.52" stroke="hsl(133.60000000000002, 78.6%, 100%)" stroke-width="1.5"></path><path d="M674.26 508.81L846.65 509.59" stroke="hsl(133.60000000000002, 78.6%, 100%)" stroke-width="1.5"></path><path d="M682.36 663.52L682.36 663.52" stroke="hsl(133.60000000000002, 78.6%, 100%)" stroke-width="1.5"></path><path d="M682.36 663.52L522.61 531.39" stroke="hsl(133.60000000000002, 78.6%, 100%)" stroke-width="1.5"></path><path d="M682.36 663.52L846.65 509.59" stroke="hsl(133.60000000000002, 78.6%, 100%)" stroke-width="1.5"></path><path d="M846.65 509.59L846.65 509.59" stroke="hsl(133.60000000000002, 78.6%, 100%)" stroke-width="1.5"></path><path d="M846.65 509.59L942.63 515.53" stroke="hsl(133.60000000000002, 78.6%, 100%)" stroke-width="1.5"></path><path d="M846.65 509.59L947.32 662.53" stroke="hsl(133.60000000000002, 78.6%, 100%)" stroke-width="1.5"></path><path d="M846.65 509.59L966.59 361" stroke="hsl(133.60000000000002, 78.6%, 100%)" stroke-width="1.5"></path><path d="M966.59 361L966.59 361" stroke="hsl(133.60000000000002, 78.6%, 100%)" stroke-width="1.5"></path><path d="M966.59 361L942.63 515.53" stroke="hsl(133.60000000000002, 78.6%, 100%)" stroke-width="1.5"></path><path d="M942.63 515.53L942.63 515.53" stroke="hsl(133.60000000000002, 78.6%, 100%)" stroke-width="1.5"></path><path d="M942.63 515.53L947.32 662.53" stroke="hsl(133.60000000000002, 78.6%, 100%)" stroke-width="1.5"></path><path d="M942.63 515.53L1117.92 488.66" stroke="hsl(133.60000000000002, 78.6%, 100%)" stroke-width="1.5"></path><path d="M947.32 662.53L947.32 662.53" stroke="hsl(133.60000000000002, 78.6%, 100%)" stroke-width="1.5"></path><path d="M947.32 662.53L1123.28 680.52" stroke="hsl(133.60000000000002, 78.6%, 100%)" stroke-width="1.5"></path><path d="M947.32 662.53L1117.92 488.66" stroke="hsl(133.60000000000002, 78.6%, 100%)" stroke-width="1.5"></path><path d="M1162.29 94.69L1162.29 94.69" stroke="hsl(133.60000000000002, 78.6%, 100%)" stroke-width="1.5"></path><path d="M1162.29 94.69L1153.97 193.49" stroke="hsl(133.60000000000002, 78.6%, 100%)" stroke-width="1.5"></path><path d="M1162.29 94.69L1290.75 44.56" stroke="hsl(133.60000000000002, 78.6%, 100%)" stroke-width="1.5"></path><path d="M1162.29 94.69L1302.87 199.8" stroke="hsl(133.60000000000002, 78.6%, 100%)" stroke-width="1.5"></path><path d="M1162.29 94.69L1125.3 364.87" stroke="hsl(133.60000000000002, 78.6%, 100%)" stroke-width="1.5"></path><path d="M1162.29 94.69L1436.26 49.68" stroke="hsl(133.60000000000002, 78.6%, 100%)" stroke-width="1.5"></path><path d="M1153.97 193.49L1153.97 193.49" stroke="hsl(133.60000000000002, 78.6%, 100%)" stroke-width="1.5"></path><path d="M1125.3 364.87L1125.3 364.87" stroke="hsl(133.60000000000002, 78.6%, 100%)" stroke-width="1.5"></path><path d="M1125.3 364.87L1117.92 488.66" stroke="hsl(133.60000000000002, 78.6%, 100%)" stroke-width="1.5"></path><path d="M1125.3 364.87L1282.83 372.7" stroke="hsl(133.60000000000002, 78.6%, 100%)" stroke-width="1.5"></path><path d="M1125.3 364.87L966.59 361" stroke="hsl(133.60000000000002, 78.6%, 100%)" stroke-width="1.5"></path><path d="M1125.3 364.87L1153.97 193.49" stroke="hsl(133.60000000000002, 78.6%, 100%)" stroke-width="1.5"></path><path d="M1125.3 364.87L1286 498.96" stroke="hsl(133.60000000000002, 78.6%, 100%)" stroke-width="1.5"></path><path d="M1117.92 488.66L1117.92 488.66" stroke="hsl(133.60000000000002, 78.6%, 100%)" stroke-width="1.5"></path><path d="M1117.92 488.66L1286 498.96" stroke="hsl(133.60000000000002, 78.6%, 100%)" stroke-width="1.5"></path><path d="M1117.92 488.66L1123.28 680.52" stroke="hsl(133.60000000000002, 78.6%, 100%)" stroke-width="1.5"></path><path d="M1117.92 488.66L966.59 361" stroke="hsl(133.60000000000002, 78.6%, 100%)" stroke-width="1.5"></path><path d="M1123.28 680.52L1123.28 680.52" stroke="hsl(133.60000000000002, 78.6%, 100%)" stroke-width="1.5"></path><path d="M1290.75 44.56L1290.75 44.56" stroke="hsl(133.60000000000002, 78.6%, 100%)" stroke-width="1.5"></path><path d="M1290.75 44.56L1302.87 199.8" stroke="hsl(133.60000000000002, 78.6%, 100%)" stroke-width="1.5"></path><path d="M1290.75 44.56L1153.97 193.49" stroke="hsl(133.60000000000002, 78.6%, 100%)" stroke-width="1.5"></path><path d="M1290.75 44.56L1437.03 -99.21" stroke="hsl(133.60000000000002, 78.6%, 100%)" stroke-width="1.5"></path><path d="M1290.75 44.56L1557.16 -61.14" stroke="hsl(133.60000000000002, 78.6%, 100%)" stroke-width="1.5"></path><path d="M1302.87 199.8L1302.87 199.8" stroke="hsl(133.60000000000002, 78.6%, 100%)" stroke-width="1.5"></path><path d="M1302.87 199.8L1153.97 193.49" stroke="hsl(133.60000000000002, 78.6%, 100%)" stroke-width="1.5"></path><path d="M1302.87 199.8L1282.83 372.7" stroke="hsl(133.60000000000002, 78.6%, 100%)" stroke-width="1.5"></path><path d="M1302.87 199.8L1423.31 405.8" stroke="hsl(133.60000000000002, 78.6%, 100%)" stroke-width="1.5"></path><path d="M1282.83 372.7L1282.83 372.7" stroke="hsl(133.60000000000002, 78.6%, 100%)" stroke-width="1.5"></path><path d="M1282.83 372.7L1286 498.96" stroke="hsl(133.60000000000002, 78.6%, 100%)" stroke-width="1.5"></path><path d="M1282.83 372.7L1423.31 405.8" stroke="hsl(133.60000000000002, 78.6%, 100%)" stroke-width="1.5"></path><path d="M1282.83 372.7L1434.68 494.1" stroke="hsl(133.60000000000002, 78.6%, 100%)" stroke-width="1.5"></path><path d="M1282.83 372.7L1117.92 488.66" stroke="hsl(133.60000000000002, 78.6%, 100%)" stroke-width="1.5"></path><path d="M1286 498.96L1286 498.96" stroke="hsl(133.60000000000002, 78.6%, 100%)" stroke-width="1.5"></path><path d="M1286 498.96L1423.31 405.8" stroke="hsl(133.60000000000002, 78.6%, 100%)" stroke-width="1.5"></path><path d="M1437.03 -99.21L1437.03 -99.21" stroke="hsl(133.60000000000002, 78.6%, 100%)" stroke-width="1.5"></path><path d="M1437.03 -99.21L1557.16 -61.14" stroke="hsl(133.60000000000002, 78.6%, 100%)" stroke-width="1.5"></path><path d="M1423.31 405.8L1423.31 405.8" stroke="hsl(133.60000000000002, 78.6%, 100%)" stroke-width="1.5"></path><path d="M1427.23 664.14L1427.23 664.14" stroke="hsl(133.60000000000002, 78.6%, 100%)" stroke-width="1.5"></path><path d="M1427.23 664.14L1568.89 537.89" stroke="hsl(133.60000000000002, 78.6%, 100%)" stroke-width="1.5"></path><path d="M1427.23 664.14L1286 498.96" stroke="hsl(133.60000000000002, 78.6%, 100%)" stroke-width="1.5"></path><path d="M1427.23 664.14L1423.31 405.8" stroke="hsl(133.60000000000002, 78.6%, 100%)" stroke-width="1.5"></path><path d="M1427.23 664.14L1123.28 680.52" stroke="hsl(133.60000000000002, 78.6%, 100%)" stroke-width="1.5"></path><path d="M1557.16 -61.14L1557.16 -61.14" stroke="hsl(133.60000000000002, 78.6%, 100%)" stroke-width="1.5"></path><path d="M1557.16 -61.14L1597.48 57.75" stroke="hsl(133.60000000000002, 78.6%, 100%)" stroke-width="1.5"></path><path d="M1557.16 -61.14L1570.85 212.24" stroke="hsl(133.60000000000002, 78.6%, 100%)" stroke-width="1.5"></path><path d="M1597.48 57.75L1597.48 57.75" stroke="hsl(133.60000000000002, 78.6%, 100%)" stroke-width="1.5"></path><path d="M1597.48 57.75L1570.85 212.24" stroke="hsl(133.60000000000002, 78.6%, 100%)" stroke-width="1.5"></path><path d="M1597.48 57.75L1437.03 -99.21" stroke="hsl(133.60000000000002, 78.6%, 100%)" stroke-width="1.5"></path><path d="M1570.85 212.24L1570.85 212.24" stroke="hsl(133.60000000000002, 78.6%, 100%)" stroke-width="1.5"></path><path d="M1568.89 537.89L1568.89 537.89" stroke="hsl(133.60000000000002, 78.6%, 100%)" stroke-width="1.5"></path><circle r="25" cx="550.84" cy="701.65" fill="url(&quot;#SvgjsRadialGradient1559&quot;)"></circle><circle r="25" cx="683.07" cy="395.72" fill="url(&quot;#SvgjsRadialGradient1559&quot;)"></circle><circle r="25" cx="829.17" cy="365.67" fill="url(&quot;#SvgjsRadialGradient1559&quot;)"></circle><circle r="25" cx="1281.54" cy="705.43" fill="url(&quot;#SvgjsRadialGradient1559&quot;)"></circle><circle r="25" cx="1436.26" cy="49.68" fill="url(&quot;#SvgjsRadialGradient1559&quot;)"></circle><circle r="25" cx="1434.68" cy="494.1" fill="url(&quot;#SvgjsRadialGradient1559&quot;)"></circle><circle r="25" cx="1585.18" cy="358.38" fill="url(&quot;#SvgjsRadialGradient1559&quot;)"></circle><circle r="5" cx="-77.63" cy="499.69" fill="#dafbe1"></circle><circle r="5" cx="-53.79" cy="703.32" fill="#dafbe1"></circle><circle r="5" cx="93.4" cy="541.25" fill="#dafbe1"></circle><circle r="5" cx="89.03" cy="689.73" fill="#dafbe1"></circle><circle r="5" cx="258.78" cy="551.79" fill="#dafbe1"></circle><circle r="5" cx="243.59" cy="651.66" fill="#dafbe1"></circle><circle r="5" cx="383.06" cy="496.5" fill="#dafbe1"></circle><circle r="5" cx="385.85" cy="674.98" fill="#dafbe1"></circle><circle r="5" cx="522.61" cy="531.39" fill="#dafbe1"></circle><circle r="5" cx="674.26" cy="508.81" fill="#dafbe1"></circle><circle r="5" cx="682.36" cy="663.52" fill="#dafbe1"></circle><circle r="5" cx="846.65" cy="509.59" fill="#dafbe1"></circle><circle r="5" cx="966.59" cy="361" fill="#dafbe1"></circle><circle r="5" cx="942.63" cy="515.53" fill="#dafbe1"></circle><circle r="5" cx="947.32" cy="662.53" fill="#dafbe1"></circle><circle r="5" cx="1162.29" cy="94.69" fill="#dafbe1"></circle><circle r="5" cx="1153.97" cy="193.49" fill="#dafbe1"></circle><circle r="5" cx="1125.3" cy="364.87" fill="#dafbe1"></circle><circle r="5" cx="1117.92" cy="488.66" fill="#dafbe1"></circle><circle r="5" cx="1123.28" cy="680.52" fill="#dafbe1"></circle><circle r="5" cx="1290.75" cy="44.56" fill="#dafbe1"></circle><circle r="5" cx="1302.87" cy="199.8" fill="#dafbe1"></circle><circle r="5" cx="1282.83" cy="372.7" fill="#dafbe1"></circle><circle r="5" cx="1286" cy="498.96" fill="#dafbe1"></circle><circle r="5" cx="1437.03" cy="-99.21" fill="#dafbe1"></circle><circle r="5" cx="1423.31" cy="405.8" fill="#dafbe1"></circle><circle r="5" cx="1427.23" cy="664.14" fill="#dafbe1"></circle><circle r="5" cx="1557.16" cy="-61.14" fill="#dafbe1"></circle><circle r="5" cx="1597.48" cy="57.75" fill="#dafbe1"></circle><circle r="5" cx="1570.85" cy="212.24" fill="#dafbe1"></circle><circle r="5" cx="1568.89" cy="537.89" fill="#dafbe1"></circle></g><defs><mask id="SvgjsMask1557"><rect width="1444" height="570" fill="#ffffff"></rect></mask><linearGradient x1="15.13%" y1="138.33%" x2="84.87%" y2="-38.33%" gradientUnits="userSpaceOnUse" id="SvgjsLinearGradient1558"><stop stop-color="rgba(14, 42, 71, 1)" offset="0.53"></stop><stop stop-color="rgba(0, 158, 67, 0.91)" offset="1"></stop></linearGradient><radialGradient id="SvgjsRadialGradient1559"><stop stop-color="#ffffff" offset="0.1"></stop><stop stop-color="rgba(180, 246, 195, 1)" offset="0.2"></stop><stop stop-color="rgba(180, 246, 195, 0)" offset="1"></stop></radialGradient></defs></svg>